<svg xmlns="http://www.w3.org/2000/svg" viewBox="0 0 437.49 426.57"><defs><style>.cls-1{fill:#f4981a;}.cls-2{fill:#2c0d0f;}</style></defs><title>Zasób 1</title><g id="Warstwa_2" data-name="Warstwa 2"><g id="Warstwa_1-2" data-name="Warstwa 1"><rect class="cls-1" x="52.41" y="65.83" width="311.49" height="305.41"/><path class="cls-2" d="M326.12,134a21.41,21.41,0,0,1-15.31,6.42c-.46,0-.91,0-1.35,0H309A22.54,22.54,0,0,1,293.29,134h0a23.61,23.61,0,0,1-6.22-16c0-.28,0-.55,0-.82v0c0-.24,0-.5,0-.78A21.42,21.42,0,0,1,293.62,101h0a23.38,23.38,0,0,1,16.11-6.38h.16c.33,0,.74,0,1.13,0A21.75,21.75,0,0,1,326.47,101h0a22.91,22.91,0,0,1,6,15.52c0,.24,0,.49,0,.73v0c0,.24,0,.54,0,.81a23.06,23.06,0,0,1-6.39,16h0Zm3.81,164.6c0,2-.72,2.92-2.35,2.92h-36a2.55,2.55,0,0,1-2.55-2.55c0-.13,0-.26,0-.38V158.24c0-1.82.74-2.55,2.39-2.55h36.09c1.63,0,2.35.9,2.35,2.55Zm-62,2.74H229.83l-.25,0a2.76,2.76,0,0,1-2.64-2h0L212,255.94H144.18l-13.86,42.85a3.22,3.22,0,0,1-3.15,2.58,1.72,1.72,0,0,1-.32,0H92.6c-2,0-2.55-1.11-2-3.28l58.7-169c.54-1.82,1.09-3.82,1.82-6a61.61,61.61,0,0,0,1.1-11.76v-.1h0a.82.82,0,0,1,0-.23,1.81,1.81,0,0,1,1.46-1.78h47.23c1.46,0,2.19.54,2.37,1.46l66.53,187.75c.55,2,0,2.91-1.83,2.91ZM360,0H77.41A77.41,77.41,0,0,0,0,77.41v.08H0V349.15a77.42,77.42,0,0,0,77.41,77.42H360.08a77.42,77.42,0,0,0,77.41-77.42v-.07h0V77.41A77.41,77.41,0,0,0,360.08,0ZM191.94,190.13c-1.83-5.65-3.46-11.12-5.28-16.78s-3.46-10.94-4.92-16.22c-1.46-5.1-2.73-9.85-4-14.22h-.37A218.41,218.41,0,0,1,170.71,168l.45-1.58c-2.72,8.76-5.47,17.87-8.38,27-2.56,9.3-5.28,17.87-8,25.53h46.3c-1.09-3.85-2.55-8.39-4.18-13.14-1.64-4.9-3.29-10.2-4.92-15.65Z"/></g></g></svg>