<svg xmlns="http://www.w3.org/2000/svg" viewBox="0 0 798 798"><defs><style>.cls-1{fill:#ff408c;}.cls-2{fill:#6f2b41;}</style></defs><title>Zasób 1</title><g id="Warstwa_2" data-name="Warstwa 2"><g id="Warstwa_1-2" data-name="Warstwa 1"><rect class="cls-1" x="121" y="92" width="581" height="672"/><path class="cls-2" d="M526.3,417.54a97.38,97.38,0,0,1,1.7,18.11v41.28a77.43,77.43,0,0,1-2.26,20.37c-6.78,30-31.67,49.2-59.95,49.2-44.12,0-69-36.76-69-87.1,0-51.47,24.89-91.06,69.57-91.06C498,368.34,520.08,390.4,526.3,417.54ZM798,133.07V664.93C798,738.12,738.12,798,664.93,798H133C59.85,798,0,738.15,0,665V133.07C0,59.88,59.88,0,133.07,0H664.93C738.12,0,798,59.88,798,133.07ZM267,215H197V596h70ZM600.29,597c-1.15-18.86-2.29-49.71-2.29-78.28V195H528V351h-1.13c-12.44-20.37-39.61-36.21-77.52-36.21-66.2,0-123.91,54.88-123.35,147.11,0,84.88,52.06,140.89,117.69,140.89,40.17,0,73.56-19.23,90-49.79h.91l2.86,44Z"/></g></g></svg>